<?xml version="1.0" encoding="UTF-8" standalone="no"?>
<svg width="22px" height="21px" viewBox="0 0 22 21" version="1.1" xmlns="http://www.w3.org/2000/svg" xmlns:xlink="http://www.w3.org/1999/xlink">
    <!-- Generator: Sketch 3.8.3 (29802) - http://www.bohemiancoding.com/sketch -->
    <title>node-map-icon</title>
    <desc>Created with Sketch.</desc>
    <defs></defs>
    <g id="Page-1" stroke="none" stroke-width="1" fill="none" fill-rule="evenodd">
        <g id="iPad-Portrait" transform="translate(-553.000000, -163.000000)" fill="#FFFFFF">
            <g id="node-map-icon" transform="translate(553.000000, 163.000000)">
                <path d="M3.58232553,0.00648666667 C3.63388511,0.00844666667 3.68518723,0.0116666667 3.73641915,0.0181533333 C3.86128085,0.0339966667 3.98412979,0.0654033333 4.10122128,0.111463333 C4.30603191,0.192056667 4.4923766,0.31745 4.64431702,0.476303333 C4.78808936,0.626593333 4.90042979,0.806236667 4.97211702,1.00128 C5.01113191,1.10747 5.03811702,1.21802333 5.05244043,1.33023333 C5.05894681,1.38128667 5.0622,1.43238667 5.06414255,1.48379 C5.14022979,7.44739333 5.06461064,13.4119533 5.06461064,19.3760467 C5.06395532,19.4265633 5.06194255,19.47687 5.05679362,19.5271533 C5.04527872,19.64004 5.02100851,19.7515733 4.98452128,19.8590467 C4.9136766,20.0675533 4.79672553,20.25975 4.64436383,20.4190467 C4.4924234,20.5779467 4.30603191,20.7033633 4.10117447,20.7839333 C3.98408298,20.8299933 3.86125745,20.8614233 3.73637234,20.8772433 C3.68516383,20.88373 3.63390851,20.88695 3.58234894,20.88891 C2.90517021,20.8974967 2.22787447,20.8893767 1.55062553,20.8893767 C1.49995532,20.8887233 1.44954255,20.8866933 1.39910638,20.8815833 C1.28585319,20.8701267 1.17393404,20.84593 1.06613404,20.8095067 C0.856993617,20.7389 0.664212766,20.6223033 0.504431915,20.4704033 C0.34507234,20.3189233 0.219274468,20.13312 0.138459574,19.9288833 C0.0922595745,19.81217 0.0607574468,19.6897167 0.0448659574,19.5652333 C0.0383361702,19.5141333 0.035106383,19.4629867 0.0331404255,19.4115367 C-0.0411680851,13.4479567 0.0326957447,7.48346667 0.0326957447,1.51944333 C0.0333276596,1.46888 0.0353638298,1.41855 0.0404893617,1.36824333 C0.0520042553,1.25535667 0.0762744681,1.1438 0.112785106,1.03635 C0.179721277,0.839323333 0.287802128,0.65681 0.428110638,0.502926667 C0.584404255,0.331496667 0.7799,0.196513333 0.996085106,0.111463333 C1.1131766,0.0654033333 1.23600213,0.0339966667 1.36088723,0.0181533333 C1.41209574,0.0116666667 1.46339787,0.00844666667 1.51498085,0.00648666667 C2.20402553,-0.00214666667 2.89325745,-0.00214666667 3.58232553,0.00648666667 L3.58232553,0.00648666667 Z M1.55727234,1.05604333 C1.50110213,1.05674333 1.44617234,1.06493333 1.39325532,1.08425333 C1.26516383,1.13103667 1.16110851,1.23475333 1.11418298,1.36248 C1.0966766,1.41012667 1.08801702,1.45978 1.08607447,1.51036667 C1.01188298,7.46813667 1.01185957,13.42726 1.08607447,19.38503 C1.08801702,19.4356167 1.0966766,19.48527 1.11418298,19.5329167 C1.15977447,19.6570267 1.25935957,19.7586433 1.3826766,19.80713 C1.43360426,19.8271733 1.48708298,19.83709 1.54168511,19.8391667 C2.21294255,19.8476833 2.88436383,19.8476833 3.55559787,19.8391667 C3.6063383,19.8372533 3.65616596,19.8286433 3.70393404,19.81119 C3.82849149,19.7656433 3.93039362,19.6664767 3.97909787,19.54344 C3.99917872,19.49269 4.00914894,19.43935 4.01120851,19.3849367 C4.08724894,13.42726 4.08722553,7.46813667 4.01120851,1.51046 C4.00912553,1.45602333 3.99917872,1.40270667 3.97909787,1.35193333 C3.93041702,1.22896667 3.82851489,1.12973 3.70400426,1.08423 C3.65621277,1.06677667 3.60640851,1.05816667 3.55564468,1.05623 C2.88958298,1.04787667 2.22340426,1.05604333 1.55727234,1.05604333 L1.55727234,1.05604333 Z" id="Fill-1"></path>
                <path d="M4.53801489,6.83104333 C4.53801489,6.31591333 4.11851702,5.89771 3.60184468,5.89771 L1.72950426,5.89771 C1.21280851,5.89771 0.793334043,6.31591333 0.793334043,6.83104333 L0.793334043,13.3643767 C0.793334043,13.8794833 1.21280851,14.29771 1.72950426,14.29771 L3.60184468,14.29771 C4.11851702,14.29771 4.53801489,13.8794833 4.53801489,13.3643767 L4.53801489,6.83104333 Z" id="Fill-2"></path>
                <path d="M16.9422702,1.52271 C12.5537383,6.57216 9.71435745,7.23284333 3.60184468,5.89771 L3.60184468,14.29771 C10.3757149,13.5797433 13.1536596,14.7941267 16.9422702,19.6643767 L16.9422702,1.52271 Z" id="Fill-3"></path>
                <path d="M3.58232553,0.00648666667 C3.63388511,0.00844666667 3.68518723,0.0116666667 3.73641915,0.0181533333 C3.86128085,0.0339966667 3.98412979,0.0654033333 4.10122128,0.111463333 C4.30603191,0.192056667 4.4923766,0.31745 4.64431702,0.476303333 C4.78808936,0.626593333 4.90042979,0.806236667 4.97211702,1.00128 C5.01113191,1.10747 5.03811702,1.21802333 5.05244043,1.33023333 C5.05894681,1.38128667 5.0622,1.43238667 5.06414255,1.48379 C5.14022979,7.44739333 5.06461064,13.4119533 5.06461064,19.3760467 C5.06395532,19.4265633 5.06194255,19.47687 5.05679362,19.5271533 C5.04527872,19.64004 5.02100851,19.7515733 4.98452128,19.8590467 C4.9136766,20.0675533 4.79672553,20.25975 4.64436383,20.4190467 C4.4924234,20.5779467 4.30603191,20.7033633 4.10117447,20.7839333 C3.98408298,20.8299933 3.86125745,20.8614233 3.73637234,20.8772433 C3.68516383,20.88373 3.63390851,20.88695 3.58234894,20.88891 C2.90517021,20.8974967 2.22787447,20.8893767 1.55062553,20.8893767 C1.49995532,20.8887233 1.44954255,20.8866933 1.39910638,20.8815833 C1.28585319,20.8701267 1.17393404,20.84593 1.06613404,20.8095067 C0.856993617,20.7389 0.664212766,20.6223033 0.504431915,20.4704033 C0.34507234,20.3189233 0.219274468,20.13312 0.138459574,19.9288833 C0.0922595745,19.81217 0.0607574468,19.6897167 0.0448659574,19.5652333 C0.0383361702,19.5141333 0.035106383,19.4629867 0.0331404255,19.4115367 C-0.0411680851,13.4479567 0.0326957447,7.48346667 0.0326957447,1.51944333 C0.0333276596,1.46888 0.0353638298,1.41855 0.0404893617,1.36824333 C0.0520042553,1.25535667 0.0762744681,1.1438 0.112785106,1.03635 C0.179721277,0.839323333 0.287802128,0.65681 0.428110638,0.502926667 C0.584404255,0.331496667 0.7799,0.196513333 0.996085106,0.111463333 C1.1131766,0.0654033333 1.23600213,0.0339966667 1.36088723,0.0181533333 C1.41209574,0.0116666667 1.46339787,0.00844666667 1.51498085,0.00648666667 C2.20402553,-0.00214666667 2.89325745,-0.00214666667 3.58232553,0.00648666667 L3.58232553,0.00648666667 Z M1.55727234,1.05604333 C1.50110213,1.05674333 1.44617234,1.06493333 1.39325532,1.08425333 C1.26516383,1.13103667 1.16110851,1.23475333 1.11418298,1.36248 C1.0966766,1.41012667 1.08801702,1.45978 1.08607447,1.51036667 C1.01188298,7.46813667 1.01185957,13.42726 1.08607447,19.38503 C1.08801702,19.4356167 1.0966766,19.48527 1.11418298,19.5329167 C1.15977447,19.6570267 1.25935957,19.7586433 1.3826766,19.80713 C1.43360426,19.8271733 1.48708298,19.83709 1.54168511,19.8391667 C2.21294255,19.8476833 2.88436383,19.8476833 3.55559787,19.8391667 C3.6063383,19.8372533 3.65616596,19.8286433 3.70393404,19.81119 C3.82849149,19.7656433 3.93039362,19.6664767 3.97909787,19.54344 C3.99917872,19.49269 4.00914894,19.43935 4.01120851,19.3849367 C4.08724894,13.42726 4.08722553,7.46813667 4.01120851,1.51046 C4.00912553,1.45602333 3.99917872,1.40270667 3.97909787,1.35193333 C3.93041702,1.22896667 3.82851489,1.12973 3.70400426,1.08423 C3.65621277,1.06677667 3.60640851,1.05816667 3.55564468,1.05623 C2.88958298,1.04787667 2.22340426,1.05604333 1.55727234,1.05604333 L1.55727234,1.05604333 Z" id="Fill-4"></path>
                <path d="M20.4672553,0.00648666667 C20.5188383,0.00844666667 20.570117,0.0116666667 20.6213489,0.0181533333 C20.746234,0.0339966667 20.8690596,0.0654033333 20.9861511,0.111463333 C21.1909851,0.192056667 21.3773532,0.317473333 21.5292936,0.47635 C21.6730426,0.62664 21.785383,0.806236667 21.8570468,1.00128 C21.8960617,1.10744667 21.9230468,1.21797667 21.9373702,1.33016333 C21.9439,1.38124 21.9471298,1.43236333 21.9490957,1.48379 C22.0251596,7.44739333 21.9495404,13.4119533 21.9495404,19.3760467 C21.9488851,19.4265633 21.9468723,19.47687 21.9417468,19.5271533 C21.9302319,19.6400167 21.9059617,19.7515267 21.8694745,19.8589533 C21.7947681,20.07901 21.6686191,20.2807733 21.5038532,20.44504 C21.3567574,20.59169 21.179634,20.70782 20.9861277,20.7839333 C20.8690128,20.8299933 20.7461872,20.8614 20.6213255,20.8772433 C20.570117,20.88373 20.5188383,20.88695 20.4673021,20.88891 C19.7901,20.8974967 19.1128043,20.8893767 18.4355553,20.8893767 C18.3849085,20.8887233 18.3344723,20.8866933 18.2840596,20.8815833 C18.1708064,20.8701267 18.0588872,20.84593 17.9510638,20.8095067 C17.7303851,20.73498 17.5280319,20.60926 17.3633128,20.44504 C17.2162404,20.2984133 17.0998043,20.1218733 17.0234128,19.9289767 C16.9771894,19.8122167 16.9456872,19.68974 16.9297957,19.5652333 C16.923266,19.5141567 16.9200362,19.4630333 16.9180702,19.4116067 C16.8419596,13.4480033 16.9176255,7.48344333 16.9176255,1.51937333 C16.9182809,1.46885667 16.9202936,1.41859667 16.9254191,1.36831333 C16.9369106,1.25542667 16.9612043,1.14387 16.9976915,1.03642 C17.0685128,0.827866667 17.1854872,0.63567 17.3378723,0.47635 C17.4897894,0.317473333 17.6761574,0.19208 17.8809915,0.111486667 C17.998083,0.0654033333 18.1209319,0.0339966667 18.245817,0.0181533333 C18.2970489,0.0116666667 18.3483511,0.00844666667 18.3999106,0.00648666667 C19.0889787,-0.00214666667 19.7781872,-0.00214666667 20.4672553,0.00648666667 L20.4672553,0.00648666667 Z M20.1603553,0.99771 L18.6390787,0.99771 C18.2192532,0.99771 17.8784404,1.33751333 17.8784404,1.75604333 L17.8784404,19.1393767 C17.8784404,19.5579067 18.2192532,19.89771 18.6390787,19.89771 L20.1603553,19.89771 C20.5801574,19.89771 20.9209936,19.5579067 20.9209936,19.1393767 L20.9209936,1.75604333 C20.9209936,1.33751333 20.5801574,0.99771 20.1603553,0.99771 L20.1603553,0.99771 Z" id="Fill-5"></path>
            </g>
        </g>
    </g>
</svg>